<svg width="208" height="222" viewBox="0 0 208 222" fill="none" xmlns="http://www.w3.org/2000/svg">
<path d="M0.880478 66.9506L26.8805 84.9506L66.8805 57.9506V163.951L27.3805 137.451L1.38048 155.951L95.8805 220.951H96.8805V0.950562L0.880478 66.9506Z" fill="#6C63FF" stroke="#6C63FF"/>
<path d="M110.88 72.9506V220.951L140.88 199.951V92.9506L110.88 72.9506Z" fill="#6C63FF"/>
<path d="M153.88 190.951V154.951L176.88 139.951V101.951L110.88 56.9506V19.9506L206.88 85.4506V155.951L154.88 190.951H153.88Z" fill="#6C63FF"/>
<path d="M110.88 72.9506V220.951L140.88 199.951V92.9506L110.88 72.9506Z" stroke="#6C63FF"/>
<path d="M153.88 190.951V154.951L176.88 139.951V101.951L110.88 56.9506V19.9506L206.88 85.4506V155.951L154.88 190.951H153.88Z" stroke="#6C63FF"/>
</svg>
